# xmcd
#
# Track frame offsets:
#	183
#	9745
#	22220
#	33670
#	47783
#	56858
#	68608
#	83083
#	95908
#	106970
#	119470
#	134145
#	147133
#	158958
#	171070
#	180770
#	192245
#	208133
#
# Disc length: 2918 seconds
#
# Revision: 0
# Processed by: cddbd v1.5.2PL0 Copyright (c) Steve Scherf et al.
# Submitted via: SynApp - FreeCDDB Version: 2.4
#
DISCID=090b6412
DTITLE=Frankie Lane - Gunfight At The O.K. Corral
DYEAR=1991
DGENRE=Country and Western
TTITLE0=Gunfight at the O.K. Corral
TTITLE1=High Noon (Do Not Forsake Me)
TTITLE2=Mule Train
TTITLE3=Riders In The Sky
TTITLE4=Rawhide
TTITLE5=Blowing Wild (The Ballad Of Black Gold)
TTITLE6=Jealousy
TTITLE7=Moonlight Gambler
TTITLE8=Rose, Rose I Love You
TTITLE9=Granada
TTITLE10=Jezebel
TTITLE11=Rain, Rain, Rain
TTITLE12=Answer Me (Mutterlein)
TTITLE13=The Rock Of Gibraltar
TTITLE14=I Believe
TTITLE15=On The Sunny Side Of The Street
TTITLE16=That Lucky Old Sun
TTITLE17=Hummingbird
EXTD=
EXTT0=
EXTT1=
EXTT2=
EXTT3=
EXTT4=
EXTT5=
EXTT6=
EXTT7=
EXTT8=
EXTT9=
EXTT10=
EXTT11=
EXTT12=
EXTT13=
EXTT14=
EXTT15=
EXTT16=
EXTT17=
PLAYORDER=
